<svg version="1.1" id="Layer_1" xmlns="http://www.w3.org/2000/svg" xmlns:xlink="http://www.w3.org/1999/xlink" x="0px" y="0px"
	 width="100%" viewBox="0 0 1000 1000" enable-background="new 0 0 1000 1000" xml:space="preserve">
<path fill="#000000" opacity="1.000000" stroke="none" 
	d="
M558.000000,1001.000000 
	C372.000000,1001.000000 186.500000,1001.000000 1.000000,1001.000000 
	C1.000000,667.666687 1.000000,334.333344 1.000000,1.000000 
	C334.333344,1.000000 667.666687,1.000000 1001.000000,1.000000 
	C1001.000000,334.333344 1001.000000,667.666687 1001.000000,1001.000000 
	C853.500000,1001.000000 706.000000,1001.000000 558.000000,1001.000000 
M939.063843,605.761841 
	C939.315125,605.331238 939.717712,604.926392 939.796021,604.466309 
	C942.551941,588.275513 945.908447,572.154175 947.836670,555.864014 
	C949.921814,538.247192 950.830933,520.481750 951.900330,502.759827 
	C952.215454,497.537872 951.345276,492.242889 950.997925,486.982697 
	C950.000000,471.871033 950.005188,456.605896 947.735229,441.687256 
	C944.787781,422.316071 940.307678,403.157288 935.979431,384.021973 
	C929.880005,357.056366 919.460571,331.562073 907.794983,306.629639 
	C897.601196,284.842865 885.321045,264.168915 871.717407,244.307632 
	C857.882568,224.108963 842.122009,205.466843 825.216797,187.823914 
	C809.587952,171.512985 792.588867,156.717743 774.623962,142.955368 
	C754.439514,127.492760 733.115601,113.894699 710.685730,102.041862 
	C700.080811,96.437759 689.196838,91.256920 678.098755,86.716652 
	C663.449341,80.723534 648.727478,74.650902 633.566711,70.221130 
	C607.700378,62.663334 581.559448,55.942978 554.489014,53.955765 
	C537.940735,52.740982 521.425964,50.705177 504.860931,50.204060 
	C492.537292,49.831249 480.125885,50.981846 467.810242,52.086067 
	C453.653931,53.355320 439.524231,55.065922 425.447540,57.044315 
	C404.379883,60.005253 383.704865,64.931854 363.690552,72.096413 
	C344.831909,78.847298 325.973999,85.782692 307.706757,93.957588 
	C284.251892,104.454048 262.440643,117.964767 241.340134,132.741501 
	C222.623383,145.848877 205.257751,160.467316 188.623718,176.007599 
	C181.733551,182.444733 175.319122,189.432266 169.075607,196.511047 
	C158.979599,207.957733 148.420959,219.119751 139.494736,231.442902 
	C128.859604,246.125275 119.590126,261.812256 109.999977,277.232544 
	C95.713928,300.203400 85.319077,325.046326 76.082489,350.348877 
	C63.380833,385.143646 56.191021,421.264221 52.140282,457.982758 
	C50.640339,471.579254 50.179165,485.343079 50.145775,499.032806 
	C50.116055,511.219482 51.173359,523.420532 52.044323,535.594238 
	C52.840202,546.718628 53.325394,557.936279 55.214775,568.894287 
	C57.856003,584.212830 61.522301,599.363525 65.021423,614.523315 
	C71.420296,642.246155 81.656784,668.634888 93.781967,694.281067 
	C105.327759,718.701721 118.511665,742.249756 135.039688,763.687988 
	C147.215240,779.480713 159.673828,795.103943 172.849884,810.059509 
	C181.708206,820.114197 191.808121,829.127563 201.783783,838.128906 
	C209.910660,845.462036 218.259109,852.692322 227.249710,858.895020 
	C244.472137,870.776978 262.074585,882.128601 279.788513,893.272339 
	C301.159363,906.716675 324.362549,916.447021 348.027588,924.950134 
	C371.833557,933.503906 396.113525,940.542175 421.257111,944.066101 
	C438.547882,946.489441 455.813873,949.381104 473.194244,950.780457 
	C486.794586,951.875366 500.567749,951.390198 514.237976,950.890991 
	C527.867798,950.393433 541.536560,949.569458 555.058289,947.860840 
	C571.510193,945.781921 588.034058,943.518250 604.157349,939.752502 
	C636.212158,932.265808 667.247070,921.519775 696.873840,907.003174 
	C719.079163,896.122803 740.168030,883.420593 760.537720,869.340088 
	C779.621765,856.148315 797.150818,841.196106 813.980042,825.388184 
	C829.256897,811.038513 842.981995,795.259094 855.975098,778.752686 
	C872.529724,757.721741 886.868835,735.322510 899.506897,711.834717 
	C910.730774,690.975159 920.137939,669.228699 927.552124,646.722351 
	C931.899048,633.527100 935.223816,619.995056 939.063843,605.761841 
z"/>
<path fill="#FF906C" opacity="1.000000" stroke="none" 
	d="
M939.036133,606.188171 
	C935.223816,619.995056 931.899048,633.527100 927.552124,646.722351 
	C920.137939,669.228699 910.730774,690.975159 899.506897,711.834717 
	C886.868835,735.322510 872.529724,757.721741 855.975098,778.752686 
	C842.981995,795.259094 829.256897,811.038513 813.980042,825.388184 
	C797.150818,841.196106 779.621765,856.148315 760.537720,869.340088 
	C740.168030,883.420593 719.079163,896.122803 696.873840,907.003174 
	C667.247070,921.519775 636.212158,932.265808 604.157349,939.752502 
	C588.034058,943.518250 571.510193,945.781921 555.058289,947.860840 
	C541.536560,949.569458 527.867798,950.393433 514.237976,950.890991 
	C500.567749,951.390198 486.794586,951.875366 473.194244,950.780457 
	C455.813873,949.381104 438.547882,946.489441 421.257111,944.066101 
	C396.113525,940.542175 371.833557,933.503906 348.027588,924.950134 
	C324.362549,916.447021 301.159363,906.716675 279.788513,893.272339 
	C262.074585,882.128601 244.472137,870.776978 227.249710,858.895020 
	C218.259109,852.692322 209.910660,845.462036 201.783783,838.128906 
	C191.808121,829.127563 181.708206,820.114197 172.849884,810.059509 
	C159.673828,795.103943 147.215240,779.480713 135.039688,763.687988 
	C118.511665,742.249756 105.327759,718.701721 93.781967,694.281067 
	C81.656784,668.634888 71.420296,642.246155 65.021423,614.523315 
	C61.522301,599.363525 57.856003,584.212830 55.214775,568.894287 
	C53.325394,557.936279 52.840202,546.718628 52.044323,535.594238 
	C51.173359,523.420532 50.116055,511.219482 50.145775,499.032806 
	C50.179165,485.343079 50.640339,471.579254 52.140282,457.982758 
	C56.191021,421.264221 63.380833,385.143646 76.082489,350.348877 
	C85.319077,325.046326 95.713928,300.203400 109.999977,277.232544 
	C119.590126,261.812256 128.859604,246.125275 139.494736,231.442902 
	C148.420959,219.119751 158.979599,207.957733 169.075607,196.511047 
	C175.319122,189.432266 181.733551,182.444733 188.623718,176.007599 
	C205.257751,160.467316 222.623383,145.848877 241.340134,132.741501 
	C262.440643,117.964767 284.251892,104.454048 307.706757,93.957588 
	C325.973999,85.782692 344.831909,78.847298 363.690552,72.096413 
	C383.704865,64.931854 404.379883,60.005253 425.447540,57.044315 
	C439.524231,55.065922 453.653931,53.355320 467.810242,52.086067 
	C480.125885,50.981846 492.537292,49.831249 504.860931,50.204060 
	C521.425964,50.705177 537.940735,52.740982 554.489014,53.955765 
	C581.559448,55.942978 607.700378,62.663334 633.566711,70.221130 
	C648.727478,74.650902 663.449341,80.723534 678.098755,86.716652 
	C689.196838,91.256920 700.080811,96.437759 710.685730,102.041862 
	C733.115601,113.894699 754.439514,127.492760 774.623962,142.955368 
	C792.588867,156.717743 809.587952,171.512985 825.216797,187.823914 
	C842.122009,205.466843 857.882568,224.108963 871.717407,244.307632 
	C885.321045,264.168915 897.601196,284.842865 907.794983,306.629639 
	C919.460571,331.562073 929.880005,357.056366 935.979431,384.021973 
	C940.307678,403.157288 944.787781,422.316071 947.735229,441.687256 
	C950.005188,456.605896 950.000000,471.871033 950.997925,486.982697 
	C951.345276,492.242889 952.215454,497.537872 951.900330,502.759827 
	C950.830933,520.481750 949.921814,538.247192 947.836670,555.864014 
	C945.908447,572.154175 942.551941,588.275513 939.796021,604.466309 
	C939.717712,604.926392 939.315125,605.331238 939.036133,606.188171 
M401.448700,364.684204 
	C400.983551,350.033997 400.690582,335.375885 400.016724,320.735291 
	C398.692169,291.957916 397.723938,263.147064 395.540192,234.431290 
	C393.541901,208.154572 387.726196,182.837952 373.357086,159.955780 
	C361.106232,140.446747 344.557251,129.080780 321.369202,126.327873 
	C277.710968,121.144745 238.585251,155.322601 239.769104,199.048538 
	C239.953674,205.865540 238.288635,211.237793 234.258942,215.939880 
	C227.458359,223.875168 220.789932,232.137299 212.851654,238.819427 
	C205.951538,244.627640 197.507629,248.688858 189.498825,253.070419 
	C179.963882,258.286926 174.507858,267.596924 176.046021,277.169830 
	C177.622345,286.980286 184.535553,294.399933 194.452301,295.585846 
	C199.459183,296.184631 204.861923,295.855225 209.755859,294.629089 
	C241.226837,286.744415 272.603180,278.482391 304.024628,270.398682 
	C305.845428,269.930237 307.788513,269.937225 309.992706,269.686829 
	C309.992706,272.274994 310.101349,274.247070 309.976776,276.204315 
	C307.077789,321.756439 304.213898,367.311035 301.144043,412.851746 
	C300.823364,417.608643 299.757446,422.456451 298.184784,426.964722 
	C288.555573,454.568268 281.002625,482.701355 276.278778,511.554230 
	C270.371979,547.632202 268.478790,583.753845 275.957886,619.886902 
	C281.565704,646.979431 292.709961,670.955688 313.675293,689.915771 
	C334.577606,708.818848 358.612671,722.542358 383.973145,734.238220 
	C412.462769,747.377258 442.138092,757.216125 472.262268,765.814880 
	C473.893250,766.280457 476.259796,768.248962 476.297180,769.574036 
	C476.602631,780.397034 476.651703,791.239807 476.327576,802.063110 
	C476.143951,808.194397 472.330017,811.547485 466.034241,812.133789 
	C459.070068,812.782288 452.074127,813.160522 445.138031,814.025513 
	C428.490234,816.101685 412.376923,820.001404 397.984009,829.139404 
	C391.446686,833.289978 388.734741,839.705444 390.383209,846.670959 
	C392.051300,853.719360 397.262848,858.323364 404.800079,859.198853 
	C407.437408,859.505188 410.125336,859.643433 412.773651,859.515686 
	C415.722076,859.373413 417.090454,860.245911 417.858124,863.398865 
	C419.884277,871.720398 425.684753,876.000793 434.131226,876.004456 
	C474.797760,876.022034 515.464294,876.027039 556.130859,876.000488 
	C564.800842,875.994812 571.558777,870.821533 573.867126,862.616272 
	C576.049377,854.859436 572.960083,846.618469 565.903259,842.232300 
	C563.097778,840.488647 559.927673,839.328918 556.914734,837.922424 
	C552.623901,835.919373 549.799927,832.550659 549.769836,827.870422 
	C549.675659,813.219666 549.950928,798.566406 550.114319,783.914551 
	C550.116882,783.686707 550.519104,783.463318 550.867615,783.098938 
	C558.829468,784.244995 566.883301,785.468811 574.955688,786.553833 
	C596.852722,789.496948 618.662842,790.589294 640.495911,785.447205 
	C673.058594,777.778076 703.217346,764.341309 732.105286,747.882690 
	C763.949890,729.739502 793.628662,708.683655 818.635681,681.558472 
	C825.035400,674.616760 829.820984,667.514832 823.056396,658.321960 
	C828.026245,651.996582 831.099731,645.636780 828.598267,637.684631 
	C825.991272,629.396973 819.536255,627.079712 811.297913,626.958130 
	C819.982117,617.747070 818.885437,615.079956 807.696838,611.454224 
	C796.662292,607.878418 785.605957,603.911255 775.286743,598.680542 
	C752.341919,587.050110 733.072205,570.124573 714.224426,552.978271 
	C672.507324,515.027222 625.321350,487.117340 570.913879,471.510590 
	C540.186218,462.696381 509.454071,458.844666 477.752625,465.884735 
	C466.800293,468.316986 455.397156,469.686157 444.193085,469.728455 
	C434.247345,469.766022 423.733093,467.904633 418.301331,457.714661 
	C414.808929,451.162903 411.789459,444.146179 409.917694,436.982574 
	C403.816284,413.631592 402.633209,389.624268 401.448700,364.684204 
z"/>
<path fill="#3E362E" opacity="1.000000" stroke="none" 
	d="
M401.512207,365.160950 
	C402.633209,389.624268 403.816284,413.631592 409.917694,436.982574 
	C411.789459,444.146179 414.808929,451.162903 418.301331,457.714661 
	C423.733093,467.904633 434.247345,469.766022 444.193085,469.728455 
	C455.397156,469.686157 466.800293,468.316986 477.752625,465.884735 
	C509.454071,458.844666 540.186218,462.696381 570.913879,471.510590 
	C625.321350,487.117340 672.507324,515.027222 714.224426,552.978271 
	C733.072205,570.124573 752.341919,587.050110 775.286743,598.680542 
	C785.605957,603.911255 796.662292,607.878418 807.696838,611.454224 
	C818.885437,615.079956 819.982117,617.747070 811.297913,626.958130 
	C819.536255,627.079712 825.991272,629.396973 828.598267,637.684631 
	C831.099731,645.636780 828.026245,651.996582 823.056396,658.321960 
	C829.820984,667.514832 825.035400,674.616760 818.635681,681.558472 
	C793.628662,708.683655 763.949890,729.739502 732.105286,747.882690 
	C703.217346,764.341309 673.058594,777.778076 640.495911,785.447205 
	C618.662842,790.589294 596.852722,789.496948 574.955688,786.553833 
	C566.883301,785.468811 558.829468,784.244995 550.867615,783.098938 
	C550.519104,783.463318 550.116882,783.686707 550.114319,783.914551 
	C549.950928,798.566406 549.675659,813.219666 549.769836,827.870422 
	C549.799927,832.550659 552.623901,835.919373 556.914734,837.922424 
	C559.927673,839.328918 563.097778,840.488647 565.903259,842.232300 
	C572.960083,846.618469 576.049377,854.859436 573.867126,862.616272 
	C571.558777,870.821533 564.800842,875.994812 556.130859,876.000488 
	C515.464294,876.027039 474.797760,876.022034 434.131226,876.004456 
	C425.684753,876.000793 419.884277,871.720398 417.858124,863.398865 
	C417.090454,860.245911 415.722076,859.373413 412.773651,859.515686 
	C410.125336,859.643433 407.437408,859.505188 404.800079,859.198853 
	C397.262848,858.323364 392.051300,853.719360 390.383209,846.670959 
	C388.734741,839.705444 391.446686,833.289978 397.984009,829.139404 
	C412.376923,820.001404 428.490234,816.101685 445.138031,814.025513 
	C452.074127,813.160522 459.070068,812.782288 466.034241,812.133789 
	C472.330017,811.547485 476.143951,808.194397 476.327576,802.063110 
	C476.651703,791.239807 476.602631,780.397034 476.297180,769.574036 
	C476.259796,768.248962 473.893250,766.280457 472.262268,765.814880 
	C442.138092,757.216125 412.462769,747.377258 383.973145,734.238220 
	C358.612671,722.542358 334.577606,708.818848 313.675293,689.915771 
	C292.709961,670.955688 281.565704,646.979431 275.957886,619.886902 
	C268.478790,583.753845 270.371979,547.632202 276.278778,511.554230 
	C281.002625,482.701355 288.555573,454.568268 298.184784,426.964722 
	C299.757446,422.456451 300.823364,417.608643 301.144043,412.851746 
	C304.213898,367.311035 307.077789,321.756439 309.976776,276.204315 
	C310.101349,274.247070 309.992706,272.274994 309.992706,269.686829 
	C307.788513,269.937225 305.845428,269.930237 304.024628,270.398682 
	C272.603180,278.482391 241.226837,286.744415 209.755859,294.629089 
	C204.861923,295.855225 199.459183,296.184631 194.452301,295.585846 
	C184.535553,294.399933 177.622345,286.980286 176.046021,277.169830 
	C174.507858,267.596924 179.963882,258.286926 189.498825,253.070419 
	C197.507629,248.688858 205.951538,244.627640 212.851654,238.819427 
	C220.789932,232.137299 227.458359,223.875168 234.258942,215.939880 
	C238.288635,211.237793 239.953674,205.865540 239.769104,199.048538 
	C238.585251,155.322601 277.710968,121.144745 321.369202,126.327873 
	C344.557251,129.080780 361.106232,140.446747 373.357086,159.955780 
	C387.726196,182.837952 393.541901,208.154572 395.540192,234.431290 
	C397.723938,263.147064 398.692169,291.957916 400.016724,320.735291 
	C400.690582,335.375885 400.983551,350.033997 401.512207,365.160950 
M755.110474,670.915527 
	C750.504822,670.282349 745.908630,669.558411 741.287476,669.072632 
	C739.943237,668.931213 737.995667,668.966980 737.229065,669.777222 
	C731.472473,675.861328 725.942139,682.159607 719.517944,689.306580 
	C725.018433,689.783569 729.981262,690.213989 735.520325,691.275330 
	C736.143311,691.487000 736.755371,691.841064 737.390808,691.889893 
	C764.605713,693.981750 789.120850,686.780212 811.023010,670.519714 
	C812.187683,669.655029 813.690979,669.246338 815.036621,668.625366 
	C814.516541,667.764893 813.996399,666.904480 813.476257,666.044006 
	C794.460754,670.213013 775.263733,671.696106 755.110474,670.915527 
M778.939941,699.758423 
	C774.629395,700.821777 770.318787,701.885132 765.133606,702.907715 
	C761.529358,703.274353 757.892334,704.146667 754.326965,703.914978 
	C742.541443,703.149597 730.781860,701.985657 718.459717,700.490173 
	C715.323120,699.398682 712.227722,698.156433 709.031433,697.283325 
	C707.570374,696.884155 705.626160,696.656616 704.383179,697.292908 
	C682.373657,708.561218 658.562195,710.772827 634.484192,710.750366 
	C590.518372,710.709473 547.176819,705.161926 504.693695,693.764954 
	C471.111969,684.755859 438.887909,672.438599 410.528442,651.692444 
	C388.165192,635.332825 370.676483,615.209045 364.127991,587.519775 
	C361.845459,577.868469 361.183990,567.833740 359.924805,557.051392 
	C359.985016,539.967590 362.120453,523.158325 366.708588,506.689667 
	C368.153870,501.501953 370.999023,499.376465 374.657684,500.452118 
	C378.461426,501.570435 379.297241,504.553009 378.325439,509.860535 
	C376.169128,521.637268 373.563385,533.415710 372.613739,545.311035 
	C370.847198,567.439758 373.705353,588.957397 385.488861,608.413025 
	C395.727539,625.318115 410.290894,637.900696 426.778351,648.373535 
	C455.214142,666.435730 486.620728,677.107971 519.107483,684.941956 
	C554.686340,693.521790 590.843079,697.950073 627.396729,698.723145 
	C646.039917,699.117432 664.713623,698.573730 682.803284,693.003784 
	C695.772400,689.010437 707.703735,683.178528 717.571838,673.413330 
	C715.745422,673.166870 714.030945,673.303345 712.341431,673.587708 
	C703.808655,675.023743 695.287048,676.526184 686.751831,677.947083 
	C682.635986,678.632263 679.335205,677.614502 678.440857,672.998596 
	C677.735840,669.359619 680.419067,666.761108 685.174622,666.043457 
	C691.755127,665.050476 698.364624,664.195557 704.895752,662.938477 
	C736.464844,656.861816 766.079712,646.016235 792.162170,626.705017 
	C794.229004,625.174744 796.201538,623.517273 798.726318,621.515869 
	C776.986023,614.837646 758.374512,604.245483 741.355103,590.927368 
	C728.372498,580.768066 715.479553,570.420288 703.278381,559.349915 
	C664.162781,523.859497 619.683228,498.138763 568.865662,483.389801 
	C540.862000,475.262207 512.706787,470.741638 483.667572,477.052094 
	C470.825012,479.842865 457.988464,483.160767 444.686462,481.959930 
	C420.938202,479.816040 410.788910,474.489410 401.901276,451.100037 
	C399.136780,443.824768 397.202850,436.137329 395.755707,428.474823 
	C389.484009,395.267456 389.552826,361.563751 388.211060,327.960968 
	C386.962585,296.694092 385.721222,265.410461 383.493774,234.204361 
	C381.698181,209.048691 375.845032,184.909042 361.312744,163.476761 
	C351.446411,148.925873 338.613678,139.970261 320.874298,138.360703 
	C295.034729,136.016190 274.443146,144.802979 260.315796,166.960083 
	C254.880219,175.485184 251.917053,184.946838 251.875626,195.290466 
	C267.426544,193.363724 275.453278,197.663986 281.392181,211.017883 
	C282.604645,213.744171 283.097046,216.803177 284.412567,219.466171 
	C285.132904,220.924332 286.725403,222.632294 288.190002,222.932373 
	C298.178528,224.978897 305.764984,230.396027 310.188690,239.389069 
	C312.819427,244.737106 313.976166,250.810181 315.935089,256.997864 
	C331.735352,254.480942 346.567627,248.561066 357.939087,235.694290 
	C360.649048,232.627945 363.524689,230.753082 367.406158,233.476288 
	C370.465668,235.622803 370.437592,239.410721 367.323578,243.069504 
	C356.543457,255.735641 342.374969,262.632690 326.673584,267.018402 
	C325.018280,267.480743 322.588715,269.270660 322.492188,270.589172 
	C321.338165,286.348480 320.557922,302.135162 319.340729,318.668335 
	C317.754211,342.913269 316.326080,367.170013 314.518188,391.398438 
	C313.531128,404.626343 313.747589,417.926178 309.715912,430.927063 
	C303.408539,451.266449 297.176666,471.701294 292.467499,492.448608 
	C283.829071,530.506958 280.000122,569.052368 286.045715,607.982056 
	C289.160919,628.042053 294.496460,647.456055 306.651978,664.220337 
	C321.157074,684.225220 340.848389,698.118103 362.069946,709.972168 
	C403.480988,733.103821 448.223083,747.393433 493.940399,758.999939 
	C497.047791,759.788879 500.199158,760.404602 504.033569,761.257324 
	C504.033569,755.961121 504.033569,751.483398 504.503357,746.528503 
	C513.652283,736.351440 532.066284,734.463806 544.699768,742.321106 
	C547.986084,744.365112 550.362488,746.844788 550.102051,751.884094 
	C550.102051,758.155640 550.102051,764.427185 550.102051,770.833008 
	C558.947327,772.147888 567.150757,773.515991 575.394958,774.562622 
	C593.584351,776.871948 611.769836,778.612732 630.077759,775.321960 
	C656.345520,770.600464 680.881897,761.015442 704.638794,749.213745 
	C731.699097,735.771118 757.254456,719.945190 781.103333,700.342712 
	C781.319641,700.013367 781.535950,699.684021 781.752197,699.354675 
	C781.076660,699.472229 780.401062,699.589783 778.939941,699.758423 
M515.811890,801.499756 
	C515.811523,806.662659 515.859558,811.826050 515.801514,816.988281 
	C515.641052,831.258179 506.753845,840.192749 492.584747,841.084534 
	C483.299377,841.668945 474.003723,842.642395 464.817017,844.099487 
	C453.595154,845.879395 442.711121,849.104736 433.051636,855.330566 
	C431.355347,856.423828 430.682312,859.104736 429.536743,861.052368 
	C431.563110,862.086853 433.582184,863.136292 435.624756,864.137817 
	C435.893280,864.269470 436.282043,864.155945 436.615143,864.155945 
	C475.586426,864.155518 514.557678,864.155762 553.528992,864.150879 
	C554.693909,864.150757 556.104980,864.504639 556.972961,863.982117 
	C558.835449,862.860779 561.389465,861.537720 561.859070,859.808167 
	C562.397888,857.823914 561.477356,854.992126 560.267334,853.127808 
	C559.308289,851.650208 557.027100,850.912720 555.211365,850.128052 
	C542.001099,844.419434 537.343323,837.106873 537.506104,822.593567 
	C537.737732,801.948792 537.874207,781.302856 538.004028,760.657166 
	C538.064575,751.029785 536.326721,749.352356 526.521545,749.600525 
	C524.384766,749.654602 522.246155,750.127686 520.133789,750.538635 
	C516.867432,751.174011 515.683472,753.053406 515.729980,756.533386 
	C515.925659,771.186646 515.812073,785.843994 515.811890,801.499756 
M276.227264,233.433258 
	C275.418488,231.490326 274.519043,229.579453 273.818542,227.598236 
	C271.999207,222.452347 270.969788,216.881760 268.344604,212.198441 
	C263.806915,204.103180 255.145859,204.355209 250.670563,212.398315 
	C237.965775,235.231598 220.007263,252.322678 196.175888,263.223236 
	C189.314331,266.361725 186.737350,270.956665 188.164917,276.389008 
	C189.708481,282.262726 194.124725,284.722595 201.946777,284.022766 
	C203.100586,283.919525 204.262863,283.747101 205.383347,283.459259 
	C236.433380,275.482147 267.468292,267.445587 298.540771,259.556976 
	C301.549744,258.793060 302.574707,257.370758 302.560791,254.403900 
	C302.512329,244.089828 293.530426,234.897568 283.221741,234.677094 
	C281.113281,234.631989 279.014008,234.156830 276.227264,233.433258 
M486.537140,810.696777 
	C482.264496,819.465332 475.225342,823.746155 465.502991,824.211670 
	C458.533844,824.545288 451.556030,825.172485 444.643768,826.119263 
	C430.728210,828.025452 417.153473,831.249817 405.106476,838.892151 
	C403.610260,839.841370 401.843475,842.716248 402.302917,843.839417 
	C402.975922,845.484802 405.493713,847.289673 407.317993,847.393127 
	C415.551605,847.859985 423.905853,848.652283 431.037445,842.658936 
	C433.240021,840.807861 436.370300,840.012695 439.139709,838.892029 
	C456.199280,831.988159 474.201355,830.130066 492.342468,829.027588 
	C499.499664,828.592590 503.655975,824.963440 503.741760,818.415222 
	C503.922699,804.605957 503.846832,790.792297 503.731018,776.981628 
	C503.720551,775.732849 502.916138,773.662415 502.039276,773.389221 
	C497.703979,772.038208 493.220245,771.163391 488.254028,769.994873 
	C488.254028,779.220520 488.413574,787.692932 488.190308,796.155273 
	C488.068787,800.762695 487.297394,805.352844 486.537140,810.696777 
M782.075623,658.641113 
	C789.963684,657.483826 797.848877,656.307068 805.740662,655.175659 
	C811.509583,654.348633 814.742004,650.361328 816.981140,645.612854 
	C818.857056,641.634827 816.582336,638.392090 812.289062,639.044128 
	C806.243286,639.962219 800.024536,640.895813 794.388977,643.115540 
	C783.146057,647.543701 772.249634,652.851746 761.210144,657.796326 
	C761.390747,658.119873 761.571411,658.443359 761.752014,658.766907 
	C768.217529,658.766907 774.683044,658.766907 782.075623,658.641113 
z"/>
<path fill="#E7F1F0" opacity="1.000000" stroke="none" 
	d="
M319.679932,317.914673 
	C320.557922,302.135162 321.338165,286.348480 322.492188,270.589172 
	C322.588715,269.270660 325.018280,267.480743 326.673584,267.018402 
	C342.374969,262.632690 356.543457,255.735641 367.323578,243.069504 
	C370.437592,239.410721 370.465668,235.622803 367.406158,233.476288 
	C363.524689,230.753082 360.649048,232.627945 357.939087,235.694290 
	C346.567627,248.561066 331.735352,254.480942 315.935089,256.997864 
	C313.976166,250.810181 312.819427,244.737106 310.188690,239.389069 
	C305.764984,230.396027 298.178528,224.978897 288.190002,222.932373 
	C286.725403,222.632294 285.132904,220.924332 284.412567,219.466171 
	C283.097046,216.803177 282.604645,213.744171 281.392181,211.017883 
	C275.453278,197.663986 267.426544,193.363724 251.875626,195.290466 
	C251.917053,184.946838 254.880219,175.485184 260.315796,166.960083 
	C274.443146,144.802979 295.034729,136.016190 320.874298,138.360703 
	C338.613678,139.970261 351.446411,148.925873 361.312744,163.476761 
	C375.845032,184.909042 381.698181,209.048691 383.493774,234.204361 
	C385.721222,265.410461 386.962585,296.694092 388.211060,327.960968 
	C389.552826,361.563751 389.484009,395.267456 395.755707,428.474823 
	C397.202850,436.137329 399.136780,443.824768 401.901276,451.100037 
	C410.788910,474.489410 420.938202,479.816040 444.686462,481.959930 
	C457.988464,483.160767 470.825012,479.842865 483.667572,477.052094 
	C512.706787,470.741638 540.862000,475.262207 568.865662,483.389801 
	C619.683228,498.138763 664.162781,523.859497 703.278381,559.349915 
	C715.479553,570.420288 728.372498,580.768066 741.355103,590.927368 
	C758.374512,604.245483 776.986023,614.837646 798.726318,621.515869 
	C796.201538,623.517273 794.229004,625.174744 792.162170,626.705017 
	C766.079712,646.016235 736.464844,656.861816 704.895752,662.938477 
	C698.364624,664.195557 691.755127,665.050476 685.174622,666.043457 
	C680.419067,666.761108 677.735840,669.359619 678.440857,672.998596 
	C679.335205,677.614502 682.635986,678.632263 686.751831,677.947083 
	C695.287048,676.526184 703.808655,675.023743 712.341431,673.587708 
	C714.030945,673.303345 715.745422,673.166870 717.571838,673.413330 
	C707.703735,683.178528 695.772400,689.010437 682.803284,693.003784 
	C664.713623,698.573730 646.039917,699.117432 627.396729,698.723145 
	C590.843079,697.950073 554.686340,693.521790 519.107483,684.941956 
	C486.620728,677.107971 455.214142,666.435730 426.778351,648.373535 
	C410.290894,637.900696 395.727539,625.318115 385.488861,608.413025 
	C373.705353,588.957397 370.847198,567.439758 372.613739,545.311035 
	C373.563385,533.415710 376.169128,521.637268 378.325439,509.860535 
	C379.297241,504.553009 378.461426,501.570435 374.657684,500.452118 
	C370.999023,499.376465 368.153870,501.501953 366.708588,506.689667 
	C362.120453,523.158325 359.985016,539.967590 359.472290,557.567017 
	C358.354034,559.265076 357.099457,560.455139 357.114624,561.628723 
	C357.249878,572.093323 356.886749,582.635254 358.039520,593.002258 
	C361.360046,622.864746 376.633911,646.346619 399.138733,665.303406 
	C418.895935,681.945740 442.084808,692.453064 466.486237,700.245239 
	C511.196350,714.522705 557.381470,719.554016 604.025696,720.824646 
	C618.094055,721.207947 632.215210,719.686279 646.311218,719.016357 
	C665.000305,718.128113 683.325256,714.943726 701.126221,709.283203 
	C707.340576,707.307129 713.064453,703.788635 719.012329,700.974609 
	C730.781860,701.985657 742.541443,703.149597 754.326965,703.914978 
	C757.892334,704.146667 761.529358,703.274353 765.480469,703.258484 
	C763.717041,705.155945 761.767883,707.014160 759.471802,708.201538 
	C733.976562,721.385986 707.523682,732.174011 679.939026,740.226013 
	C651.537415,748.516479 622.555542,753.325806 593.034607,753.787476 
	C578.821533,754.009827 564.573303,751.980103 550.341003,750.970154 
	C550.362488,746.844788 547.986084,744.365112 544.699768,742.321106 
	C532.066284,734.463806 513.652283,736.351440 503.875977,746.741272 
	C502.918488,746.912292 502.574890,746.915894 502.260162,746.822327 
	C470.415405,737.354919 439.737946,725.110840 410.661926,708.907715 
	C384.700623,694.440308 361.478760,676.682556 342.286194,653.835510 
	C319.452606,626.654175 307.281891,595.180908 305.114197,559.944641 
	C303.800018,538.582397 306.240265,517.410767 311.648560,496.687469 
	C315.470642,482.041992 320.691986,467.713135 323.725616,452.922302 
	C327.847534,432.825348 327.663025,412.361572 326.198212,391.872925 
	C324.706573,371.009308 324.163940,350.079132 322.869659,329.198944 
	C322.633362,325.386261 320.784454,321.673523 319.679932,317.914673 
M320.838257,177.685974 
	C317.195129,174.305634 312.677185,172.840210 308.545441,175.490845 
	C305.655487,177.344833 303.068207,180.837448 302.028503,184.129639 
	C300.544800,188.827805 303.962769,193.876663 308.488983,195.783813 
	C312.939117,197.658905 318.032654,196.498749 321.224060,192.883133 
	C324.863800,188.759613 324.902466,183.914459 320.838257,177.685974 
z"/>
<path fill="#D5E9E7" opacity="1.000000" stroke="none" 
	d="
M319.510315,318.291504 
	C320.784454,321.673523 322.633362,325.386261 322.869659,329.198944 
	C324.163940,350.079132 324.706573,371.009308 326.198212,391.872925 
	C327.663025,412.361572 327.847534,432.825348 323.725616,452.922302 
	C320.691986,467.713135 315.470642,482.041992 311.648560,496.687469 
	C306.240265,517.410767 303.800018,538.582397 305.114197,559.944641 
	C307.281891,595.180908 319.452606,626.654175 342.286194,653.835510 
	C361.478760,676.682556 384.700623,694.440308 410.661926,708.907715 
	C439.737946,725.110840 470.415405,737.354919 502.260162,746.822327 
	C502.574890,746.915894 502.918488,746.912292 503.641113,746.979858 
	C504.033569,751.483398 504.033569,755.961121 504.033569,761.257324 
	C500.199158,760.404602 497.047791,759.788879 493.940399,758.999939 
	C448.223083,747.393433 403.480988,733.103821 362.069946,709.972168 
	C340.848389,698.118103 321.157074,684.225220 306.651978,664.220337 
	C294.496460,647.456055 289.160919,628.042053 286.045715,607.982056 
	C280.000122,569.052368 283.829071,530.506958 292.467499,492.448608 
	C297.176666,471.701294 303.408539,451.266449 309.715912,430.927063 
	C313.747589,417.926178 313.531128,404.626343 314.518188,391.398438 
	C316.326080,367.170013 317.754211,342.913269 319.510315,318.291504 
z"/>
<path fill="#D4E8E6" opacity="1.000000" stroke="none" 
	d="
M718.736023,700.732422 
	C713.064453,703.788635 707.340576,707.307129 701.126221,709.283203 
	C683.325256,714.943726 665.000305,718.128113 646.311218,719.016357 
	C632.215210,719.686279 618.094055,721.207947 604.025696,720.824646 
	C557.381470,719.554016 511.196350,714.522705 466.486237,700.245239 
	C442.084808,692.453064 418.895935,681.945740 399.138733,665.303406 
	C376.633911,646.346619 361.360046,622.864746 358.039520,593.002258 
	C356.886749,582.635254 357.249878,572.093323 357.114624,561.628723 
	C357.099457,560.455139 358.354034,559.265076 359.401001,558.028381 
	C361.183990,567.833740 361.845459,577.868469 364.127991,587.519775 
	C370.676483,615.209045 388.165192,635.332825 410.528442,651.692444 
	C438.887909,672.438599 471.111969,684.755859 504.693695,693.764954 
	C547.176819,705.161926 590.518372,710.709473 634.484192,710.750366 
	C658.562195,710.772827 682.373657,708.561218 704.383179,697.292908 
	C705.626160,696.656616 707.570374,696.884155 709.031433,697.283325 
	C712.227722,698.156433 715.323120,699.398682 718.736023,700.732422 
z"/>
<path fill="#F7B032" opacity="1.000000" stroke="none" 
	d="
M515.811768,800.999817 
	C515.812073,785.843994 515.925659,771.186646 515.729980,756.533386 
	C515.683472,753.053406 516.867432,751.174011 520.133789,750.538635 
	C522.246155,750.127686 524.384766,749.654602 526.521545,749.600525 
	C536.326721,749.352356 538.064575,751.029785 538.004028,760.657166 
	C537.874207,781.302856 537.737732,801.948792 537.506104,822.593567 
	C537.343323,837.106873 542.001099,844.419434 555.211365,850.128052 
	C557.027100,850.912720 559.308289,851.650208 560.267334,853.127808 
	C561.477356,854.992126 562.397888,857.823914 561.859070,859.808167 
	C561.389465,861.537720 558.835449,862.860779 556.972961,863.982117 
	C556.104980,864.504639 554.693909,864.150757 553.528992,864.150879 
	C514.557678,864.155762 475.586426,864.155518 436.615143,864.155945 
	C436.282043,864.155945 435.893280,864.269470 435.624756,864.137817 
	C433.582184,863.136292 431.563110,862.086853 429.536743,861.052368 
	C430.682312,859.104736 431.355347,856.423828 433.051636,855.330566 
	C442.711121,849.104736 453.595154,845.879395 464.817017,844.099487 
	C474.003723,842.642395 483.299377,841.668945 492.584747,841.084534 
	C506.753845,840.192749 515.641052,831.258179 515.801514,816.988281 
	C515.859558,811.826050 515.811523,806.662659 515.811768,800.999817 
z"/>
<path fill="#D5E8E6" opacity="1.000000" stroke="none" 
	d="
M550.221558,751.427124 
	C564.573303,751.980103 578.821533,754.009827 593.034607,753.787476 
	C622.555542,753.325806 651.537415,748.516479 679.939026,740.226013 
	C707.523682,732.174011 733.976562,721.385986 759.471802,708.201538 
	C761.767883,707.014160 763.717041,705.155945 765.917847,703.278931 
	C770.318787,701.885132 774.629395,700.821777 779.543823,699.967896 
	C780.290405,700.332214 780.433105,700.487122 780.575806,700.642090 
	C757.254456,719.945190 731.699097,735.771118 704.638794,749.213745 
	C680.881897,761.015442 656.345520,770.600464 630.077759,775.321960 
	C611.769836,778.612732 593.584351,776.871948 575.394958,774.562622 
	C567.150757,773.515991 558.947327,772.147888 550.102051,770.833008 
	C550.102051,764.427185 550.102051,758.155640 550.221558,751.427124 
z"/>
<path fill="#FDBE5A" opacity="1.000000" stroke="none" 
	d="
M276.568909,233.656586 
	C279.014008,234.156830 281.113281,234.631989 283.221741,234.677094 
	C293.530426,234.897568 302.512329,244.089828 302.560791,254.403900 
	C302.574707,257.370758 301.549744,258.793060 298.540771,259.556976 
	C267.468292,267.445587 236.433380,275.482147 205.383347,283.459259 
	C204.262863,283.747101 203.100586,283.919525 201.946777,284.022766 
	C194.124725,284.722595 189.708481,282.262726 188.164917,276.389008 
	C186.737350,270.956665 189.314331,266.361725 196.175888,263.223236 
	C220.007263,252.322678 237.965775,235.231598 250.670563,212.398315 
	C255.145859,204.355209 263.806915,204.103180 268.344604,212.198441 
	C270.969788,216.881760 271.999207,222.452347 273.818542,227.598236 
	C274.519043,229.579453 275.418488,231.490326 276.568909,233.656586 
z"/>
<path fill="#E99926" opacity="1.000000" stroke="none" 
	d="
M486.678101,810.323792 
	C487.297394,805.352844 488.068787,800.762695 488.190308,796.155273 
	C488.413574,787.692932 488.254028,779.220520 488.254028,769.994873 
	C493.220245,771.163391 497.703979,772.038208 502.039276,773.389221 
	C502.916138,773.662415 503.720551,775.732849 503.731018,776.981628 
	C503.846832,790.792297 503.922699,804.605957 503.741760,818.415222 
	C503.655975,824.963440 499.499664,828.592590 492.342468,829.027588 
	C474.201355,830.130066 456.199280,831.988159 439.139709,838.892029 
	C436.370300,840.012695 433.240021,840.807861 431.037445,842.658936 
	C423.905853,848.652283 415.551605,847.859985 407.317993,847.393127 
	C405.493713,847.289673 402.975922,845.484802 402.302917,843.839417 
	C401.843475,842.716248 403.610260,839.841370 405.106476,838.892151 
	C417.153473,831.249817 430.728210,828.025452 444.643768,826.119263 
	C451.556030,825.172485 458.533844,824.545288 465.502991,824.211670 
	C475.225342,823.746155 482.264496,819.465332 486.678101,810.323792 
z"/>
<path fill="#655F68" opacity="1.000000" stroke="none" 
	d="
M755.922363,671.043213 
	C775.263733,671.696106 794.460754,670.213013 813.476257,666.044006 
	C813.996399,666.904480 814.516541,667.764893 815.036621,668.625366 
	C813.690979,669.246338 812.187683,669.655029 811.023010,670.519714 
	C789.120850,686.780212 764.605713,693.981750 737.390808,691.889893 
	C736.755371,691.841064 736.143311,691.487000 735.322449,690.649170 
	C740.081787,682.240173 746.396057,675.958923 754.901184,672.078979 
	C755.313354,671.890930 755.585205,671.395508 755.922363,671.043213 
z"/>
<path fill="#C1DAD7" opacity="1.000000" stroke="none" 
	d="
M781.612061,658.703979 
	C774.683044,658.766907 768.217529,658.766907 761.752014,658.766907 
	C761.571411,658.443359 761.390747,658.119873 761.210144,657.796326 
	C772.249634,652.851746 783.146057,647.543701 794.388977,643.115540 
	C800.024536,640.895813 806.243286,639.962219 812.289062,639.044128 
	C816.582336,638.392090 818.857056,641.634827 816.981140,645.612854 
	C814.742004,650.361328 811.509583,654.348633 805.740662,655.175659 
	C797.848877,656.307068 789.963684,657.483826 781.612061,658.703979 
z"/>
<path fill="#D2E5E3" opacity="1.000000" stroke="none" 
	d="
M755.516418,670.979370 
	C755.585205,671.395508 755.313354,671.890930 754.901184,672.078979 
	C746.396057,675.958923 740.081787,682.240173 735.034363,690.333618 
	C729.981262,690.213989 725.018433,689.783569 719.517944,689.306580 
	C725.942139,682.159607 731.472473,675.861328 737.229065,669.777222 
	C737.995667,668.966980 739.943237,668.931213 741.287476,669.072632 
	C745.908630,669.558411 750.504822,670.282349 755.516418,670.979370 
z"/>
<path fill="#D5E8E6" opacity="1.000000" stroke="none" 
	d="
M779.936646,699.942322 
	C780.401062,699.589783 781.076660,699.472229 781.752197,699.354675 
	C781.535950,699.684021 781.319641,700.013367 780.839600,700.492432 
	C780.433105,700.487122 780.290405,700.332214 779.936646,699.942322 
z"/>
<path fill="#403832" opacity="1.000000" stroke="none" 
	d="
M321.089600,177.967529 
	C324.902466,183.914459 324.863800,188.759613 321.224060,192.883133 
	C318.032654,196.498749 312.939117,197.658905 308.488983,195.783813 
	C303.962769,193.876663 300.544800,188.827805 302.028503,184.129639 
	C303.068207,180.837448 305.655487,177.344833 308.545441,175.490845 
	C312.677185,172.840210 317.195129,174.305634 321.089600,177.967529 
z"/>
</svg>